<svg width="30" height="29" viewBox="0 0 30 29" fill="none" xmlns="http://www.w3.org/2000/svg">
<path d="M21.5528 28.9539H21.593C22.3499 28.9539 23.0653 28.6557 23.6072 28.1138L27.4953 24.2258C27.6285 24.0927 27.7342 23.9347 27.8064 23.7608C27.8785 23.5869 27.9156 23.4005 27.9156 23.2122C27.9156 23.0239 27.8785 22.8375 27.8064 22.6635C27.7342 22.4896 27.6285 22.3316 27.4953 22.1986L21.7607 16.464C21.6277 16.3308 21.4697 16.225 21.2958 16.1529C21.1218 16.0808 20.9354 16.0437 20.7471 16.0437C20.5588 16.0437 20.3724 16.0808 20.1985 16.1529C20.0245 16.225 19.8665 16.3308 19.7335 16.464L17.4483 18.7492C16.3888 18.4338 14.4118 17.717 13.1588 16.464C11.9058 15.211 11.189 13.234 10.8736 12.1746L13.1588 9.88932C13.2921 9.7563 13.3978 9.5983 13.4699 9.42438C13.542 9.25046 13.5792 9.06402 13.5792 8.87573C13.5792 8.68745 13.542 8.50101 13.4699 8.32709C13.3978 8.15317 13.2921 7.99517 13.1588 7.86215L7.42425 2.12757C7.15017 1.86887 6.78755 1.72476 6.41067 1.72476C6.03378 1.72476 5.67116 1.86887 5.39708 2.12757L1.51047 6.01561C0.965685 6.5604 0.658885 7.30876 0.670354 8.07289C0.703328 10.1144 1.24381 17.2052 6.83216 22.7936C12.4205 28.3819 19.5113 28.9209 21.5528 28.9539V28.9539ZM6.4121 5.16833L10.1195 8.87573L8.2658 10.7294C8.09711 10.8977 7.97319 11.1054 7.90533 11.3338C7.83747 11.5622 7.82783 11.8039 7.87728 12.0369C7.91169 12.2018 8.75324 16.1113 11.1331 18.4912C13.5129 20.871 17.4225 21.7126 17.5874 21.747C17.8204 21.7967 18.0622 21.7872 18.2906 21.7193C18.519 21.6515 18.7268 21.5274 18.8948 21.3585L20.7485 19.5048L24.4559 23.2122L21.5801 26.0866C19.7909 26.0565 13.6692 25.5763 8.85933 20.7649C4.03368 15.9393 3.56632 9.79613 3.53764 8.04279L6.4121 5.16833ZM26.4745 13.1838H29.3418C29.3418 5.82924 23.7893 0.282471 16.4247 0.282471V3.14976C22.2481 3.14976 26.4745 7.36897 26.4745 13.1838V13.1838Z" fill="white"/>
<path d="M16.438 8.88389C19.4529 8.88389 20.7389 10.1699 20.7389 13.1848H23.6062C23.6062 8.56132 21.0615 6.0166 16.438 6.0166V8.88389V8.88389Z" fill="white"/>
</svg>
