<svg width="43" height="43" viewBox="0 0 43 43" fill="none" xmlns="http://www.w3.org/2000/svg">
<path d="M6.62852 2.73853C3.72561 2.73853 1.82764 4.64472 1.82764 7.15015C1.82764 9.60024 3.66907 11.5608 6.51713 11.5608H6.57222C9.53191 11.5608 11.3738 9.60024 11.3738 7.15015C11.3185 4.64472 9.53191 2.73853 6.62852 2.73853V2.73853Z" fill="white"/>
<path d="M2.3291 15.0471H10.8155V40.5788H2.3291V15.0471Z" fill="white"/>
<path d="M31.6455 14.4485C27.0674 14.4485 23.9975 18.7504 23.9975 18.7504V15.0477H15.5109V40.5795H23.997V26.3216C23.997 25.5583 24.0524 24.7962 24.2766 24.2503C24.8901 22.7262 26.2862 21.1471 28.6307 21.1471C31.7016 21.1471 32.9297 23.4885 32.9297 26.9208V40.5795H41.4154V25.94C41.4154 18.0978 37.2285 14.4485 31.6455 14.4485V14.4485Z" fill="white"/>
</svg>
