<svg width="41" height="34" viewBox="0 0 41 34" fill="none" xmlns="http://www.w3.org/2000/svg">
<path fill-rule="evenodd" clip-rule="evenodd" d="M40.7265 4.58092C39.247 5.23898 37.6566 5.68354 35.9878 5.88354C37.6912 4.85975 38.9996 3.23859 39.6156 1.30674C38.0212 2.25492 36.2555 2.94323 34.376 3.31419C32.8711 1.70634 30.7267 0.701904 28.3536 0.701904C23.7971 0.701904 20.1026 4.40572 20.1026 8.97425C20.1026 9.62263 20.1756 10.2541 20.3161 10.8595C13.4589 10.5146 7.37936 7.22103 3.31007 2.21601C2.59985 3.43778 2.19286 4.85874 2.19286 6.37486C2.19286 9.24501 3.6495 11.7771 5.8634 13.2605C4.51073 13.2176 3.23869 12.8454 2.1263 12.2258C2.1255 12.2603 2.1255 12.295 2.1255 12.3299C2.1255 16.3379 4.9696 19.6815 8.7441 20.4415C8.05178 20.6307 7.32285 20.7317 6.57021 20.7317C6.03835 20.7317 5.52157 20.6796 5.01766 20.5833C6.0679 23.8698 9.11469 26.2617 12.7253 26.3282C9.90153 28.5472 6.34399 29.8695 2.4782 29.8695C1.81221 29.8695 1.15548 29.8304 0.51001 29.7538C4.16145 32.1012 8.49858 33.4709 13.1578 33.4709C28.3341 33.4709 36.6331 20.8653 36.6331 9.93332C36.6331 9.57465 36.6251 9.218 36.6092 8.86296C38.2217 7.69684 39.6204 6.23978 40.7265 4.58092V4.58092Z" fill="white"/>
</svg>
